<svg id="visual" viewBox="0 0 900 600" width="900" height="600" xmlns="http://www.w3.org/2000/svg" xmlns:xlink="http://www.w3.org/1999/xlink" version="1.1"><rect x="0" y="0" width="900" height="600" fill="#2375c3"></rect><g transform="translate(409.4019948817284 350.0227170226735)"><path d="M149.8 -176C198.1 -138.1 243.8 -94.6 258.8 -41C273.9 12.6 258.2 76.3 218.4 108.2C178.6 140 114.8 140 64.3 144.4C13.8 148.8 -23.4 157.6 -70.3 156.4C-117.1 155.2 -173.8 144.1 -182.1 113.1C-190.5 82.2 -150.7 31.3 -144.4 -29.2C-138.1 -89.6 -165.5 -159.7 -147 -203C-128.6 -246.2 -64.3 -262.6 -6.7 -254.6C50.8 -246.5 101.6 -214 149.8 -176" fill="#bedaf3"></path></g></svg>