<svg id="visual" viewBox="0 0 900 600" width="900" height="600" xmlns="http://www.w3.org/2000/svg" xmlns:xlink="http://www.w3.org/1999/xlink" version="1.1"><rect x="0" y="0" width="900" height="600" fill="#2375c3"></rect><g transform="translate(486.8643254824991 309.5446763138733)"><path d="M120 -173.1C138.5 -127.5 124.6 -73.5 116.7 -33.2C108.8 7.1 106.8 33.8 101.2 72.3C95.5 110.8 86.2 161.1 51.7 198C17.1 234.9 -42.8 258.4 -79.8 237.2C-116.9 215.9 -131.2 150 -150.4 96.6C-169.5 43.2 -193.6 2.4 -200.7 -49C-207.9 -100.4 -198.1 -162.4 -161.8 -204.9C-125.6 -247.3 -62.8 -270.2 -6 -263C50.8 -255.9 101.6 -218.7 120 -173.1" fill="#bedaf3"></path></g></svg>