<svg id="visual" viewBox="0 0 900 600" width="900" height="600" xmlns="http://www.w3.org/2000/svg" xmlns:xlink="http://www.w3.org/1999/xlink" version="1.1"><rect x="0" y="0" width="900" height="600" fill="#2375c3"></rect><g transform="translate(475.8909459704249 272.75091235709084)"><path d="M90.5 -124.6C108.9 -92.3 109.9 -55.9 115.7 -20.7C121.5 14.5 132.2 48.5 125 82.8C117.8 117 92.8 151.5 51.9 184.8C10.9 218 -45.8 250 -88.3 236.9C-130.8 223.9 -158.9 166 -171.4 113.8C-183.8 61.6 -180.5 15.2 -167.8 -24.8C-155 -64.8 -132.8 -98.3 -103.3 -128.5C-73.7 -158.8 -36.9 -185.9 -0.4 -185.4C36 -184.9 72 -156.8 90.5 -124.6" fill="#bedaf3"></path></g></svg>